<?xml version="1.0" standalone="no"?><!DOCTYPE svg PUBLIC "-//W3C//DTD SVG 1.1//EN" "http://www.w3.org/Graphics/SVG/1.1/DTD/svg11.dtd"><svg t="1678022552025" class="icon" viewBox="0 0 1024 1024" version="1.1" xmlns="http://www.w3.org/2000/svg" p-id="2092" xmlns:xlink="http://www.w3.org/1999/xlink" width="200" height="200"><path d="M883.64 927.64H146.809c-24.262 0-44-19.738-44-44V528.396c0-24.262 19.738-44 44-44H883.64c24.262 0 44 19.738 44 44V883.64c0 24.261-19.739 44-44 44z m-716.831-64H863.64V548.396H166.809V863.64z" fill="#cdcdcd" p-id="2093"></path><path d="M253 609h64v191.998h-64zM705 611h64v188h-64z" fill="#cdcdcd" p-id="2094"></path><path d="M320.062 671.884H737v64H320.062zM548.999 223.953H737v64H548.999zM422.999 223.953h57.999v64h-57.999zM547.999 348.953H736v64H547.999zM421.999 348.953h57.999v64h-57.999z" fill="#cdcdcd" p-id="2095"></path><path d="M805 547H364.999c-24.262 0-44-19.738-44-44V139.99c0-24.262 19.738-44 44-44H805c24.262 0 44 19.738 44 44V503c0 24.262-19.738 44-44 44z m-420.001-64H785V159.99H384.999V483z" fill="#cdcdcd" p-id="2096"></path><path d="M343.399 545.067h-118.4c-24.262 0-44-19.738-44-44V267.953c0-24.262 19.738-44 44-44h118.4c24.262 0 44 19.738 44 44v233.115c0 24.261-19.738 43.999-44 43.999z m-98.4-64h78.4V287.953h-78.4v193.114z" fill="#cdcdcd" p-id="2097"></path></svg>