<?xml version="1.0" standalone="no"?><!DOCTYPE svg PUBLIC "-//W3C//DTD SVG 1.1//EN" "http://www.w3.org/Graphics/SVG/1.1/DTD/svg11.dtd"><svg t="1677228909670" class="icon" viewBox="0 0 1024 1024" version="1.1" xmlns="http://www.w3.org/2000/svg" p-id="5326" xmlns:xlink="http://www.w3.org/1999/xlink" width="200" height="200"><path d="M833.7 618.9V469.8c0-1.5 1.2-2.7 2.7-2.7h58.4c1.9 0 3.1-1.7 2.7-3.3L863 325.4c-0.2-1.2-1.5-2.1-2.7-2.1H500.7c-1.5 0-2.7-1.2-2.7-2.7v-95.3c0-1 0.6-2.1 1.7-2.5L641.2 158c2.3-1 2.1-4.2-0.2-5L497.6 97.6h-32v222.9c0 1.5-1.2 2.7-2.7 2.7H167.4c-1.2 0-2.3 0.8-2.7 2.1l-34.5 138.3c-0.4 1.7 0.8 3.3 2.7 3.3h58.4c1.5 0 2.7 1.2 2.7 2.7v149.1c0 1.5-1.2 2.7-2.7 2.7h-90.6c-1.5 0-2.7 1.2-2.7 2.7v297c0 1.5 1.2 2.7 2.7 2.7H399c1.5 0 2.7-1.2 2.7-2.7V702.2c0-1.5 1.2-2.7 2.7-2.7h220.8c1.5 0 2.7 1.2 2.7 2.7v219.1c0 1.5 1.2 2.7 2.7 2.7h294.7c1.5 0 2.7-1.2 2.7-2.7v-297c0-1.5-1.2-2.7-2.7-2.7h-88.9c-1.5 0-2.7-1.2-2.7-2.7zM190.2 770.8h-65.8c-1.5 0-2.7-1.2-2.7-2.7v-67.7c0-1.5 1.2-2.7 2.7-2.7h65.8c1.5 0 2.7 1.2 2.7 2.7v67.7c0.2 1.6-1 2.7-2.7 2.7z m132.1 2.9h-66.5c-1.5 0-2.7-1.2-2.7-2.7v-67.7c0-1.5 1.2-2.7 2.7-2.7h66.7c1.5 0 2.7 1.2 2.7 2.7V771c0 1.4-1.2 2.7-2.9 2.7z m1.1-152.1h-67.5c-1.5 0-2.7-1.2-2.7-2.7v-67.7c0-1.5 1.2-2.7 2.7-2.7h67.7c1.5 0 2.7 1.2 2.7 2.7v67.7c0 1.5-1.3 2.7-2.9 2.7z m150.6 0h-66.7c-1.5 0-2.7-1.2-2.7-2.7v-67.7c0-1.5 1.2-2.7 2.7-2.7H474c1.5 0 2.7 1.2 2.7 2.7v67.7c0 1.5-1.3 2.7-2.7 2.7z m150.1 0h-67.7c-1.5 0-2.7-1.2-2.7-2.7v-67.7c0-1.5 1.2-2.7 2.7-2.7h67.7c1.5 0 2.7 1.2 2.7 2.7v67.7c0 1.5-1.2 2.7-2.7 2.7z m147.1 152.1h-66.7c-1.5 0-2.7-1.2-2.7-2.7v-67.7c0-1.5 1.2-2.7 2.7-2.7h66.7c1.5 0 2.7 1.2 2.7 2.7V771c0.2 1.4-1.1 2.7-2.7 2.7z m2.9-152.1h-67.5c-1.5 0-2.7-1.2-2.7-2.7l-0.2-67.7c0-1.5 1.2-2.7 2.7-2.7h67.7c1.5 0 2.7 1.2 2.7 2.7v67.7c0 1.5-1 2.7-2.7 2.7z m128.6 152.1H836c-1.5 0-2.7-1.2-2.7-2.7v-67.7c0-1.5 1.2-2.7 2.7-2.7h66.7c1.5 0 2.7 1.2 2.7 2.7V771c0 1.4-1.3 2.7-2.7 2.7z" p-id="5327"></path></svg>