<?xml version="1.0" standalone="no"?><!DOCTYPE svg PUBLIC "-//W3C//DTD SVG 1.1//EN" "http://www.w3.org/Graphics/SVG/1.1/DTD/svg11.dtd"><svg t="1677229457147" class="icon" viewBox="0 0 1024 1024" version="1.1" xmlns="http://www.w3.org/2000/svg" p-id="11355" xmlns:xlink="http://www.w3.org/1999/xlink" width="200" height="200"><path d="M842.07 448.91V125.33a61.87 61.87 0 0 0-61.8-61.8H231.84a61.87 61.87 0 0 0-61.8 61.8v323.58a228.09 228.09 0 0 0-65.71 160.23v322.43a20.6 20.6 0 1 0 41.2 0V760.05h139.61v112.46a20.6 20.6 0 1 0 41.2 0V760.05h360.18v112.46a20.6 20.6 0 0 0 41.2 0V760.05h138.86v171.52a20.6 20.6 0 1 0 41.2 0V609.14a228.09 228.09 0 0 0-65.71-160.23zM231.84 104.73h548.43a20.62 20.62 0 0 1 20.6 20.6v290.46a227.16 227.16 0 0 0-86.38-32.52c-3.07-87.92-75.36-158.55-164-158.55h-88.84c-88.65 0-160.94 70.63-164 158.55a227.31 227.31 0 0 0-86.4 32.52V125.33a20.62 20.62 0 0 1 20.59-20.6z m441.29 275.48H339c4.54-63.76 57.75-114.29 122.65-114.29h88.83c64.9 0 118.11 50.53 122.65 114.29z m-527.6 338.63v-109.7c0-103.51 84.22-187.73 187.75-187.73h345.57c103.51 0 187.73 84.22 187.73 187.73v109.7z" fill="#bfbfbf" p-id="11356"></path></svg>