<?xml version="1.0" standalone="no"?><!DOCTYPE svg PUBLIC "-//W3C//DTD SVG 1.1//EN" "http://www.w3.org/Graphics/SVG/1.1/DTD/svg11.dtd"><svg t="1677229344682" class="icon" viewBox="0 0 1024 1024" version="1.1" xmlns="http://www.w3.org/2000/svg" p-id="7217" xmlns:xlink="http://www.w3.org/1999/xlink" width="200" height="200"><path d="M374.869333 89.856l-139.221333-0.213333-4.992 0.256a42.666667 42.666667 0 0 0-35.669333 29.269333L152.234667 251.050667 39.509333 332.373333l-4.266666 3.498667a42.666667 42.666667 0 0 0-11.349334 44.373333L67.157333 512 23.893333 643.712l-1.365333 5.333333a42.666667 42.666667 0 0 0 16.981333 42.581334l112.725334 81.28 42.752 131.925333 1.792 4.693333a42.666667 42.666667 0 0 0 38.869333 24.832l139.221333-0.256 112.512 81.749334 4.608 2.944a42.666667 42.666667 0 0 0 45.525334-2.986667l112.469333-81.706667 139.264 0.256 4.992-0.256a42.666667 42.666667 0 0 0 35.669333-29.269333l42.709334-131.925333 112.768-81.28 4.266666-3.498667a42.666667 42.666667 0 0 0 11.349334-44.373333L957.696 512l43.306667-131.712 1.365333-5.333333a42.666667 42.666667 0 0 0-16.981333-42.581334l-112.768-81.322666-42.666667-131.882667-1.834667-4.693333a42.666667 42.666667 0 0 0-38.869333-24.832l-139.264 0.213333L537.514667 8.149333a42.666667 42.666667 0 0 0-50.133334 0L374.869333 89.856z m137.557334 5.504l98.688 71.765333 4.522666 2.858667a42.666667 42.666667 0 0 0 20.608 5.290667l122.026667-0.298667 37.546667 115.669333 1.962666 5.077334a42.666667 42.666667 0 0 0 13.653334 16.384l98.730666 71.168-37.845333 115.413333-1.365333 5.248a42.666667 42.666667 0 0 0 1.365333 21.333333l37.845333 115.413334-98.730666 71.210666-4.181334 3.413334a42.666667 42.666667 0 0 0-11.477333 18.048l-37.504 115.626666-122.026667-0.256-5.376 0.341334a42.666667 42.666667 0 0 0-19.754666 7.808l-98.688 71.722666-98.602667-71.68-4.565333-2.901333a42.666667 42.666667 0 0 0-20.608-5.290667l-122.069334 0.256-37.461333-115.626666-2.005333-5.077334a42.666667 42.666667 0 0 0-13.653334-16.384l-98.773333-71.210666 37.888-115.370667 1.365333-5.248a42.666667 42.666667 0 0 0-1.365333-21.333333l-37.888-115.456 98.773333-71.168 4.181334-3.413334a42.666667 42.666667 0 0 0 11.477333-18.048l37.461333-115.669333 122.026667 0.298667a42.666667 42.666667 0 0 0 25.173333-8.149334l98.645334-71.765333z" fill="#bfbfbf" p-id="7218"></path><path d="M695.168 353.834667a42.666667 42.666667 0 0 1 63.872 56.32l-3.541333 4.010666-240.896 240.938667a64 64 0 0 1-85.674667 4.394667l-4.864-4.394667-112.896-112.938667a42.666667 42.666667 0 0 1 56.32-63.872l4.010667 3.541334L469.333333 579.626667l225.834667-225.792z" fill="#bfbfbf" p-id="7219"></path></svg>